<svg width="1140" height="82" viewBox="0 0 1140 82" fill="none" xmlns="http://www.w3.org/2000/svg">
<g filter="url(#filter0_d_120_2298)">
<path fill-rule="evenodd" clip-rule="evenodd" d="M24 24.0002H30.6667V30.6668H24L24 24.0002ZM37.3333 37.3335H30.6667V30.6668H37.3333V37.3335ZM37.3333 44.0002V37.3335H44V44.0002H37.3333ZM30.6667 50.6668H37.3333V44.0002H30.6667V50.6668ZM30.6667 50.6668V57.3335H24V50.6668H30.6667Z" fill="#FFFBA4"/>
</g>
<g filter="url(#filter1_d_120_2298)">
<path fill-rule="evenodd" clip-rule="evenodd" d="M56 24.0002H62.6667V30.6668H56V24.0002ZM69.3333 37.3335H62.6667V30.6668H69.3333V37.3335ZM69.3333 44.0002V37.3335H76V44.0002H69.3333ZM62.6667 50.6668H69.3333V44.0002H62.6667V50.6668ZM62.6667 50.6668V57.3335H56V50.6668H62.6667Z" fill="#FFFBA4"/>
</g>
<g filter="url(#filter2_d_120_2298)">
<path fill-rule="evenodd" clip-rule="evenodd" d="M88 24.0002H94.6667V30.6668H88V24.0002ZM101.333 37.3335H94.6667V30.6668H101.333V37.3335ZM101.333 44.0002V37.3335H108V44.0002H101.333ZM94.6667 50.6668H101.333V44.0002H94.6667V50.6668ZM94.6667 50.6668V57.3335H88V50.6668H94.6667Z" fill="#FFFBA4"/>
</g>
<line x1="134" y1="39.6665" x2="1139" y2="39.6665" stroke="#FFFBA4" stroke-width="2" stroke-linecap="round"/>
<defs>
<filter id="filter0_d_120_2298" x="0" y="0" width="68" height="81.3335" filterUnits="userSpaceOnUse" color-interpolation-filters="sRGB">
<feFlood flood-opacity="0" result="BackgroundImageFix"/>
<feColorMatrix in="SourceAlpha" type="matrix" values="0 0 0 0 0 0 0 0 0 0 0 0 0 0 0 0 0 0 127 0" result="hardAlpha"/>
<feOffset/>
<feGaussianBlur stdDeviation="12"/>
<feComposite in2="hardAlpha" operator="out"/>
<feColorMatrix type="matrix" values="0 0 0 0 0.956863 0 0 0 0 0.941176 0 0 0 0 0.882353 0 0 0 1 0"/>
<feBlend mode="normal" in2="BackgroundImageFix" result="effect1_dropShadow_120_2298"/>
<feBlend mode="normal" in="SourceGraphic" in2="effect1_dropShadow_120_2298" result="shape"/>
</filter>
<filter id="filter1_d_120_2298" x="32" y="0" width="68" height="81.3335" filterUnits="userSpaceOnUse" color-interpolation-filters="sRGB">
<feFlood flood-opacity="0" result="BackgroundImageFix"/>
<feColorMatrix in="SourceAlpha" type="matrix" values="0 0 0 0 0 0 0 0 0 0 0 0 0 0 0 0 0 0 127 0" result="hardAlpha"/>
<feOffset/>
<feGaussianBlur stdDeviation="12"/>
<feComposite in2="hardAlpha" operator="out"/>
<feColorMatrix type="matrix" values="0 0 0 0 0.956863 0 0 0 0 0.941176 0 0 0 0 0.882353 0 0 0 1 0"/>
<feBlend mode="normal" in2="BackgroundImageFix" result="effect1_dropShadow_120_2298"/>
<feBlend mode="normal" in="SourceGraphic" in2="effect1_dropShadow_120_2298" result="shape"/>
</filter>
<filter id="filter2_d_120_2298" x="64" y="0" width="68" height="81.3335" filterUnits="userSpaceOnUse" color-interpolation-filters="sRGB">
<feFlood flood-opacity="0" result="BackgroundImageFix"/>
<feColorMatrix in="SourceAlpha" type="matrix" values="0 0 0 0 0 0 0 0 0 0 0 0 0 0 0 0 0 0 127 0" result="hardAlpha"/>
<feOffset/>
<feGaussianBlur stdDeviation="12"/>
<feComposite in2="hardAlpha" operator="out"/>
<feColorMatrix type="matrix" values="0 0 0 0 0.956863 0 0 0 0 0.941176 0 0 0 0 0.882353 0 0 0 1 0"/>
<feBlend mode="normal" in2="BackgroundImageFix" result="effect1_dropShadow_120_2298"/>
<feBlend mode="normal" in="SourceGraphic" in2="effect1_dropShadow_120_2298" result="shape"/>
</filter>
</defs>
</svg>
